<svg width="30" height="30" viewBox="0 0 30 30" fill="none" xmlns="http://www.w3.org/2000/svg">
<g clip-path="url(#clip0_144_11)">
<path fill-rule="evenodd" clip-rule="evenodd" d="M22.13 14.9975L29.5391 17.1936L29.2928 18.5481L21.5553 17.7066L27.5688 22.6118L26.8505 23.6996L20.0776 20.0053L23.6898 26.8192L22.6431 27.5375L17.7585 21.5651L18.5589 29.2204L17.2659 29.4667L14.9878 22.0782L12.8122 29.4667L11.4577 29.2204L12.2581 21.5651L7.43503 27.5375L6.32675 26.8192L9.97998 20.0053L3.18661 23.6996L2.46829 22.6118L8.5228 17.7066L0.785339 18.5481L0.539062 17.1936L7.84549 14.9975L0.539062 12.822L0.785339 11.4674L8.5228 12.3089L2.46829 7.40375L3.18661 6.31599L9.97998 10.0103L6.32675 3.19639L7.43503 2.47806L12.2581 8.45046L11.4577 0.795113L12.8122 0.548828L14.9878 7.93736L17.2659 0.548828L18.5589 0.795113L17.7585 8.45046L22.6431 2.47806L23.6898 3.19639L20.0776 10.0103L26.8505 6.31599L27.5688 7.40375L21.5553 12.3089L29.2928 11.4674L29.5391 12.822L22.13 14.9975Z" fill="#A89873"/>
</g>
<defs>
<clipPath id="clip0_144_11">
<rect width="30" height="30" fill="white"/>
</clipPath>
</defs>
</svg>
