<svg width="47" height="47" viewBox="0 0 47 47" fill="none" xmlns="http://www.w3.org/2000/svg">
<g clip-path="url(#clip0_1402_4206)">
<path d="M23.4223 46.3838C35.8554 46.3838 45.9344 36.1109 45.9344 23.4387C45.9344 10.7665 35.8554 0.493652 23.4223 0.493652C10.9892 0.493652 0.910156 10.7665 0.910156 23.4387C0.910156 36.1109 10.9892 46.3838 23.4223 46.3838Z" stroke="#2E2E2E" stroke-opacity="0.2" stroke-width="1.06122"/>
<path d="M23.4236 26.1412C24.8908 26.1412 26.0664 24.934 26.0664 23.4386L26.0752 18.0332C26.0752 16.5378 24.8908 15.3306 23.4236 15.3306C21.9563 15.3306 20.7719 16.5378 20.7719 18.0332V23.4386C20.7719 24.934 21.9563 26.1412 23.4236 26.1412ZM28.1082 23.4386C28.1082 26.1412 25.8631 28.0331 23.4236 28.0331C20.984 28.0331 18.7389 26.1412 18.7389 23.4386H17.2363C17.2363 26.5106 19.6405 29.0511 22.5397 29.4925V32.4474H24.3074V29.4925C27.2066 29.0601 29.6108 26.5196 29.6108 23.4386H28.1082Z" fill="#2E2E2E"/>
</g>
<defs>
<clipPath id="clip0_1402_4206">
<rect width="46.8462" height="46.8462" fill="white" transform="translate(0 0.015625)"/>
</clipPath>
</defs>
</svg>
