<svg xmlns:xlink="http://www.w3.org/1999/xlink" width="43" height="42" viewBox="0 0 43 42" fill="none" xmlns="http://www.w3.org/2000/svg">
<path d="M12.822 30.1043C11.6408 28.9664 10.7064 27.5986 10.0766 26.0856C9.44688 24.5725 9.13521 22.9466 9.16094 21.3085C9.13432 19.6714 9.44433 18.0463 10.0718 16.5334C10.6993 15.0206 11.631 13.6522 12.8092 12.5127C13.9544 11.3438 15.3272 10.4213 16.8431 9.80173C18.359 9.18221 19.986 8.87886 21.6238 8.91036C23.2663 8.88356 24.8969 9.19276 26.4151 9.81887C27.9332 10.445 29.3068 11.3748 30.4511 12.5509C31.6269 13.6922 32.557 15.0609 33.1843 16.5733C33.8116 18.0858 34.123 19.71 34.0994 21.3467C34.1245 22.9836 33.8138 24.6083 33.1864 26.1209C32.559 27.6335 31.6281 29.0021 30.4511 30.1425C29.3074 31.3203 27.9343 32.252 26.4162 32.8803C24.898 33.5086 23.2671 33.8201 21.6238 33.7957C19.9847 33.8167 18.3587 33.5034 16.8452 32.8752C15.3317 32.2471 13.9627 31.3172 12.822 30.1425V30.1043ZM28.9331 41.3695L30.6042 32.0009H40.1331L35.3623 23.7652L42.6843 17.5916L33.755 14.3457L35.4005 4.97707L26.4712 8.23572L21.6238 0L16.8657 8.23572L7.93634 4.97707L9.51811 14.3457L0.588745 17.5916L7.89807 23.727L3.13999 31.9627H12.6561L14.3272 41.3314L21.6238 35.2214L28.9331 41.3695Z" fill="#0A0203"/>
</svg>
