<svg xmlns:xlink="http://www.w3.org/1999/xlink" width="98" height="97" viewBox="0 0 98 97" fill="none" xmlns="http://www.w3.org/2000/svg">
<path d="M49.2803 97H48.3494V67.1009H49.2803V97Z" fill="black"/>
<path d="M39.3162 95.9394L38.3855 95.6685L44.4988 66.5689L45.4297 66.7044L39.3162 95.9394Z" fill="black"/>
<path d="M58.3155 95.9387L52.203 66.7044L53.1337 66.5696L59.2465 95.6678L58.3155 95.9387Z" fill="black"/>
<path d="M29.6165 93.0101L28.8153 92.6105L41.0423 65.2438L41.8423 65.638L29.6165 93.0101Z" fill="black"/>
<path d="M68.0139 93.0111L55.7928 65.639L56.589 65.2449L68.8148 92.6115L68.0139 93.0111Z" fill="black"/>
<path d="M20.7104 87.9647L19.9145 87.2993L37.5897 63.2485L38.3855 63.7792L20.7104 87.9647Z" fill="black"/>
<path d="M76.9187 87.9647L59.2448 63.7792L60.0458 63.2485L77.7142 87.2993L76.9187 87.9647Z" fill="black"/>
<path d="M13.1361 81.1858L12.47 80.521L34.7977 60.4575L35.3274 61.1222L13.1361 81.1858Z" fill="black"/>
<path d="M84.4929 81.1854L62.3016 61.1222L62.8326 60.4571L85.1587 80.5206L84.4929 81.1854Z" fill="black"/>
<path d="M44.0964 96.5987L43.1671 96.4677L47.2887 59.1313L48.0842 59.2607L44.0964 96.5987Z" fill="black"/>
<path d="M53.5319 96.5987L49.5442 59.2607L50.3458 59.1313L54.4622 96.4677L53.5319 96.5987Z" fill="black"/>
<path d="M34.3978 94.6095L33.4664 94.344L45.0271 58.5973L45.8226 58.8682L34.3978 94.6095Z" fill="black"/>
<path d="M63.2319 94.6095L51.8054 58.8682L52.6016 58.5959L64.1626 94.344L63.2319 94.6095Z" fill="black"/>
<path d="M25.0977 90.7558L24.2971 90.2207L42.9016 57.536L43.6971 57.9352L25.0977 90.7558Z" fill="black"/>
<path d="M72.5374 90.7558L53.9326 57.9352L54.7281 57.536L73.3329 90.2207L72.5374 90.7558Z" fill="black"/>
<path d="M6.89288 72.9479L6.49293 72.1518L32.5361 57.2705L33.0661 58.0656L6.89288 72.9479Z" fill="black"/>
<path d="M90.7429 72.9479L64.5642 58.0656L65.0939 57.2705L91.1371 72.1518L90.7429 72.9479Z" fill="black"/>
<path d="M16.7223 84.7733L16.0575 84.1076L41.3058 56.2051L41.9703 56.7409L16.7223 84.7733Z" fill="black"/>
<path d="M80.9064 84.775L55.6574 56.7409L56.3245 56.2051L81.5726 84.1093L80.9064 84.775Z" fill="black"/>
<path d="M9.81419 77.1996L9.28487 76.4045L39.8459 54.6145L40.3752 55.2745L9.81419 77.1996Z" fill="black"/>
<path d="M87.8145 77.1982L57.2535 55.2732L57.7845 54.6132L88.3452 76.4031L87.8145 77.1982Z" fill="black"/>
<path d="M2.77135 63.7792L2.50516 62.8483L30.9404 53.8136L31.2113 54.6145L2.77135 63.7792Z" fill="black"/>
<path d="M94.8587 63.7792L66.4242 54.6145L66.6893 53.8136L95.1238 62.8483L94.8587 63.7792Z" fill="black"/>
<path d="M4.63163 68.4308L4.23133 67.6357L38.7842 52.4879L39.1797 53.2837L4.63163 68.4308Z" fill="black"/>
<path d="M92.9984 68.4308L58.4514 53.2837L58.851 52.4879L93.398 67.6357L92.9984 68.4308Z" fill="black"/>
<path d="M1.57587 58.8665L1.30968 57.9352L38.1204 50.3622L38.2501 51.158L1.57587 58.8665Z" fill="black"/>
<path d="M96.0542 58.8665L59.3803 51.158L59.511 50.3622L96.319 57.9352L96.0542 58.8665Z" fill="black"/>
<path d="M0.644887 53.9504L0.514157 53.0205L30.2806 49.9643L30.41 50.7591L0.644887 53.9504Z" fill="black"/>
<path d="M96.9852 53.9504L67.22 50.7591L67.3548 49.9626L97.1206 53.0205L96.9852 53.9504Z" fill="black"/>
<path d="M37.9842 48.8966H0.25V48.1001H37.9842V48.8966Z" fill="black"/>
<path d="M97.25 48.8966H59.6462V48.1001H97.25V48.8966Z" fill="black"/>
<path d="M30.282 47.0371L0.515511 43.9862L0.644887 43.0543L30.4114 46.2426L30.282 47.0371Z" fill="black"/>
<path d="M67.3568 47.0371L67.2214 46.2426L96.9868 43.056L97.1223 43.9862L67.3568 47.0371Z" fill="black"/>
<path d="M38.1194 46.6412L1.30968 39.0675L1.57587 38.1376L38.2491 45.8396L38.1194 46.6412Z" fill="black"/>
<path d="M59.511 46.6419L59.3803 45.8403L96.0542 38.1382L96.319 39.0681L59.511 46.6419Z" fill="black"/>
<path d="M30.9397 43.1853L2.50516 34.1504L2.77135 33.2198L31.2106 42.3895L30.9397 43.1853Z" fill="black"/>
<path d="M66.6893 43.1853L66.4242 42.3895L94.8587 33.2205L95.1238 34.1504L66.6893 43.1853Z" fill="black"/>
<path d="M38.7842 44.5152L4.23133 29.3684L4.63163 28.5668L39.1797 43.7136L38.7842 44.5152Z" fill="black"/>
<path d="M58.851 44.5152L58.4514 43.7136L92.9984 28.5668L93.398 29.3684L58.851 44.5152Z" fill="black"/>
<path d="M32.5368 39.7325L6.4936 24.8513L6.89288 24.05L33.0668 38.9327L32.5368 39.7325Z" fill="black"/>
<path d="M65.0949 39.7322L64.5642 38.9323L90.7439 24.05L91.1381 24.8509L65.0949 39.7322Z" fill="black"/>
<path d="M39.8459 42.3889L9.28487 20.5993L9.81419 19.7977L40.3752 41.7228L39.8459 42.3889Z" fill="black"/>
<path d="M57.7845 42.3889L57.2535 41.7228L87.8145 19.7977L88.3452 20.5993L57.7845 42.3889Z" fill="black"/>
<path d="M34.7977 36.5415L12.47 16.4763L13.1361 15.8115L35.3274 35.8761L34.7977 36.5415Z" fill="black"/>
<path d="M62.8326 36.5405L62.3016 35.8751L84.4929 15.8105L85.1587 16.4753L62.8326 36.5405Z" fill="black"/>
<path d="M41.3058 40.7932L16.0575 12.8907L16.7223 12.2236L41.9703 40.2632L41.3058 40.7932Z" fill="black"/>
<path d="M56.3235 40.7932L55.6574 40.2632L80.9054 12.2246L81.5716 12.8907L56.3235 40.7932Z" fill="black"/>
<path d="M37.5887 33.7494L19.9145 9.69804L20.7104 9.03801L38.3845 33.2191L37.5887 33.7494Z" fill="black"/>
<path d="M60.0458 33.7494L59.2448 33.2191L76.9187 9.03735L77.7142 9.69804L60.0458 33.7494Z" fill="black"/>
<path d="M42.9016 39.4616L24.2971 6.77725L25.0977 6.24727L43.6971 39.0675L42.9016 39.4616Z" fill="black"/>
<path d="M54.7281 39.4616L53.9326 39.0675L72.5374 6.24727L73.3329 6.77725L54.7281 39.4616Z" fill="black"/>
<path d="M41.0396 31.7589L28.8139 4.38643L29.6138 3.98616L41.8396 31.3586L41.0396 31.7589Z" fill="black"/>
<path d="M56.588 31.7589L55.7928 31.3586L68.0128 3.98616L68.8138 4.38643L56.588 31.7589Z" fill="black"/>
<path d="M45.0274 38.4014L33.4661 2.66139L34.3981 2.39555L45.8229 38.1376L45.0274 38.4014Z" fill="black"/>
<path d="M52.6009 38.4014L51.8051 38.1376L63.2316 2.39555L64.1622 2.66139L52.6009 38.4014Z" fill="black"/>
<path d="M44.4988 30.4287L38.3855 1.32985L39.3162 1.06469L45.4297 30.2983L44.4988 30.4287Z" fill="black"/>
<path d="M53.1337 30.4287L52.203 30.2983L58.3155 1.06469L59.2465 1.32985L53.1337 30.4287Z" fill="black"/>
<path d="M47.289 37.8731L43.1692 0.535061L44.0968 0.399926L48.0845 37.7376L47.289 37.8731Z" fill="black"/>
<path d="M50.3458 37.8731L49.5445 37.7376L53.5323 0.400608L54.4626 0.536073L50.3458 37.8731Z" fill="black"/>
<path d="M49.2803 29.8991H48.3494V0H49.2803V29.8991Z" fill="black"/>
</svg>
