<?xml version="1.0" encoding="UTF-8"?>
<svg width="704px" height="561px" viewBox="0 0 704 561" version="1.1" xmlns="http://www.w3.org/2000/svg" xmlns:xlink="http://www.w3.org/1999/xlink">
    <!-- Generator: Sketch 51.3 (57544) - http://www.bohemiancoding.com/sketch -->
    <title>Group</title>
    <desc>Created with Sketch.</desc>
    <defs></defs>
    <g id="Page-1" stroke="none" stroke-width="1" fill="none" fill-rule="evenodd">
        <g id="Group">
            <g id="blob-shape(1)" fill="#FFE400" fill-rule="nonzero">
                <path d="M522.143173,80.1920835 C582.374424,118.07247 638.400001,158.658598 672.195591,212.527459 C705.840978,266.39632 717.256377,333.547913 684.362003,380.283455 C651.317427,427.018996 573.812875,453.215497 507.873924,484.085552 C441.934974,514.832619 387.411423,550.25324 325.377741,558.862419 C263.344059,567.471597 193.49984,549.392322 133.719197,516.923419 C74.0887572,484.454517 24.2214873,437.595987 7.24859125,384.465056 C-9.87450746,331.457113 5.89676766,271.930792 27.9765528,213.634353 C50.056338,155.337915 78.5948358,98.0253822 130.41474,57.9312071 C182.384846,17.8370321 257.636359,-5.16177382 327.63078,0.987639531 C397.474999,7.13705288 461.911923,42.3116972 522.143173,80.1920835 Z" id="Shape"></path>
            </g>
            <g id="vectors" transform="translate(102.000000, 196.000000)" fill="#0000FF" stroke="#0000FF">
                <path d="M57.3750161,18.2098595 L36.8472216,87.8343823 L20.2298259,146.345975 L20.2298259,149.518804 L315.584733,149.518804 L315.685861,150.405486 C316.144691,154.428442 316.144691,157.459158 315.66677,159.533361 C315.187845,161.611925 313.877145,164.260439 311.738228,167.515997 L311.441983,167.966899 L110.860975,167.966899 L14.787324,167.966469 C8.17247211,167.772269 3.92065489,166.499733 2.02577637,163.978773 C0.175717327,161.517441 -0.434267185,156.474932 0.0628403763,148.728636 L0.0969154968,148.526312 L6.75130076,124.446971 L20.2648234,77.7122718 L32.3392047,33.5783831 C34.9003146,21.6816331 37.6146925,13.9473983 40.5646806,10.2916228 C42.9844705,7.29289591 45.6382552,5.1505937 49.3238082,3.71324534 C50.9850712,3.06536056 53.9235973,2.43418198 58.185227,1.79882152 L58.3280526,1.78790045 L355.64959,0.41034541 L351.754974,17.2534731 L350.983435,17.2757534 L318.629692,18.2098306 L203.349171,19.0858327 L114.920354,18.2098595 L57.3750161,18.2098595 Z" id="Path-87" stroke-width="2"></path>
                <path d="M540.335366,149.390753 L557.647011,103.347543 L561.095505,87.624645 L577.808739,23.6607147 L576.82216,19.0515794 L375.076222,19.0515794 L379.017723,1.1907277 L379.762931,1.13820122 C391.989533,0.276401289 401.17886,-0.154706151 407.339624,-0.154706151 C413.500205,-0.154706151 422.743271,0.27638371 435.007992,1.13572632 L583.877328,1.13572632 L584.048967,1.15056632 C589.337109,2.07188735 592.850438,3.56360008 594.595403,5.72833514 C596.317414,7.86459476 597.321854,11.9294498 597.704898,17.9884867 L597.716847,18.177501 L597.658853,18.3577947 L587.34426,50.4134754 L570.91645,120.057111 C566.619895,137.398986 562.821595,149.202205 559.492907,155.514162 C556.098799,161.950171 551.430743,166.210649 545.50955,168.245134 L545.351608,168.299401 L334.52703,168.299401 L337.967659,151.031109 L540.335366,149.390753 Z M557.647011,103.347543 L557.672346,103.280162 L557.631579,103.417906 L557.647011,103.347543 Z M577.808739,23.6607147 L577.868791,23.4308861 L577.858459,23.8929977 L577.808739,23.6607147 Z" id="Path-88" stroke-width="2"></path>
                <path d="M90.9590205,58.8605919 L86.4681114,83.7086996 L80.7314363,96.5724407 L76.346492,119.668178 L76.0855237,119.895557 C74.9821614,120.856905 74.1438281,121.492412 73.5314622,121.81877 C70.7092719,123.322846 68.0355855,123.936303 65.8319741,123.762884 C65.6917769,123.751851 65.5323,123.742159 65.2924236,123.729536 C63.2245769,123.620723 62.3948829,123.537046 61.1337937,123.206778 C59.937282,122.893422 58.8825206,122.417246 57.9811821,121.732592 C57.1663762,121.113668 56.6861766,119.847562 56.3782277,117.874333 L56.3450293,117.661609 L74.5024916,51.8773232 L74.5770573,51.7562112 C75.6492782,50.0146769 76.4596085,48.8106756 77.0268855,48.1232611 C77.7271187,47.274733 79.0311576,46.655958 80.9615936,46.1734716 L81.1830558,46.1438495 L126.948755,45.1818516 L118.307689,58.8605919 L117.756584,58.8605919 C109.052226,58.8605919 109.052226,58.8605919 103.156865,58.8605919 C97.7430705,58.8605919 97.5312017,58.8605919 90.9590205,58.8605919 Z" id="Path-89" stroke-width="2"></path>
                <path d="M105.378198,82.9776318 C112.271086,79.3065669 116.431599,76.101687 117.826914,73.4811133 C118.983476,71.3089448 119.779777,67.0266237 119.414219,63.6701038 C119.310236,62.7153396 118.796694,61.4594285 117.857558,59.9308788 L117.526102,59.391398 L126.523863,45.5967282 L127.297041,45.9296682 C131.913559,47.9175988 134.810874,50.3687094 135.922154,53.3365825 C136.646436,55.2709096 137.29113,58.865566 137.240972,61.4726881 C137.209432,63.1120675 136.778981,65.5067989 135.944233,68.7230278 C133.732143,76.1680355 130.961275,81.4942447 127.59096,84.7019926 C124.259458,87.872799 117.510139,91.6498761 107.294023,96.0906532 L107.121539,96.1656292 L80.4178932,97.1871987 L85.8479046,82.9776318 L105.3782,82.9776318 Z" id="Path-90" stroke-width="2"></path>
                <path d="M193.238662,89.2244022 L193.223233,89.1697558 L193.260177,89.2769507 L193.238662,89.2244022 Z M175.244776,58.8514067 L167.91072,80.0071897 L191.6259,80.0071897 L195.111044,88.5191287 L195.147988,88.6263236 L203.330018,117.605841 L195.998505,122.334911 L186.058578,121.115087 L185.813358,120.659537 C183.382359,116.143436 181.552936,112.397317 180.32371,109.415582 C179.138354,106.540261 177.442979,101.783714 175.232747,95.1350321 L163.832346,95.1350321 C161.896715,103.310804 160.098243,109.153207 158.42033,112.689742 C156.646761,116.427893 154.237109,119.221095 151.194365,121.043452 L150.90763,121.215184 L138.628638,119.915074 L144.630583,103.196336 L150.647666,75.8749956 L156.622383,52.4065389 L163.72148,46 L207.650629,46 L194.595219,58.8514067 L175.244776,58.8514067 Z M144.630583,103.196336 L144.652219,103.136068 L144.616807,103.258889 L144.630583,103.196336 Z" id="Path-91" stroke-width="2"></path>
                <path d="M201.421883,68.2618211 C200.612237,65.6032247 199.891649,63.8301629 199.303006,62.9940177 C198.7248,62.1726969 197.573733,61.2874644 195.850181,60.3774849 L194.664736,59.7516083 L208.166969,45.957986 L208.875039,46.5381979 C215.197511,51.7190023 219.029816,55.8756641 220.393359,59.1040936 C221.791797,62.41514 221.458879,66.7243687 219.467177,72.0263167 L219.423157,72.12648 C216.779939,77.3453999 214.148668,81.0631717 211.49837,83.2853455 C208.86095,85.4967211 204.402081,87.7347351 198.097294,90.0343454 L197.244183,90.3455096 L192.464595,80.3494102 L193.136969,79.8599119 C196.313611,77.5472687 198.377441,75.7042171 199.301402,74.3839487 C200.18287,73.1244005 200.900003,71.0788433 201.421883,68.2618211 Z" id="Path-92" stroke-width="2"></path>
                <path d="M335.008179,64.5367125 L336.076949,69.8212709 L342.143535,74.0363919 L362.45152,78.9076073 L371.127605,86.6012574 L373.85327,98.5936365 L366.092298,111.27984 L354.402717,119.786067 L354.300239,119.851497 L343.518107,125.845825 L323.32726,125.845825 L323.141069,125.828339 C317.588357,124.776072 313.497684,123.434007 310.847335,121.772989 C308.192425,120.109112 305.308447,117.076825 302.162683,112.67285 L301.644169,111.946947 L302.306402,111.34925 C305.180501,108.755241 307.517302,106.886957 309.33154,105.738055 C311.150868,104.58593 313.665862,103.383447 316.884364,102.121989 L318.772156,101.382089 L318.421177,102.59859 C318.462296,102.617456 318.505515,102.637046 318.55079,102.657331 C319.146301,102.924141 320.064381,103.297093 321.299186,103.773306 C323.772474,104.727151 328.988872,106.663422 336.942615,109.579903 C342.535812,109.309779 346.330951,108.57412 348.262302,107.433159 C350.105574,106.344231 351.988199,103.840773 353.847856,99.9185486 C350.904408,95.4970303 348.043208,92.5309552 345.294459,91.0126577 C342.440929,89.4364835 337.984441,88.4657702 331.9455,88.1347479 L331.799799,88.1267613 L331.662455,88.0774726 C324.415262,85.4766697 319.905875,82.9614589 318.073504,80.4041424 C316.218539,77.8152929 315.647653,73.1869837 316.253304,66.4596684 L316.270263,66.2712985 L316.354843,66.1021328 C318.870895,61.0698581 320.936662,57.6801119 322.59459,55.8953003 C323.635192,54.7750585 324.923704,53.7909297 326.525004,52.8178417 C327.49427,52.228832 330.906564,50.4153894 331.44836,50.0568422 C335.323728,47.4922203 341.476979,45.4228061 349.931466,43.815052 L350.143201,43.7977571 C357.914626,43.9914594 363.67006,44.728492 367.440785,46.0286162 C371.219067,47.331346 375.918411,50.2027013 381.569962,54.6424349 L382.088044,55.0494283 L381.918546,55.6860778 C380.584191,60.6980352 378.989517,63.8275934 376.989703,65.1040654 C374.96908,66.3938193 371.619123,66.3938193 366.876947,65.2324379 L366.638384,65.1740127 L366.454034,65.0117142 C364.230083,63.0537927 362.559623,61.7527634 361.473639,61.1232822 C357.366218,58.742451 353.301586,57.5758842 350.118284,57.5758842 C349.737269,57.5758842 349.481068,57.5689821 348.665357,57.5413028 C344.959522,57.4155538 342.970597,57.6853823 340.551262,59.0764853 C339.393267,59.7423252 337.520322,61.575393 335.008179,64.5367125 Z" id="Path-94" stroke-width="2"></path>
                <path d="M435.429141,60.1180359 C433.053602,73.3470774 430.868352,83.2931483 428.868794,89.9679246 C426.828002,96.7803465 423.056381,106.608504 417.551086,119.465703 L417.413687,119.786589 L417.106445,119.952266 C413.137933,122.09225 410.197892,123.171581 408.188938,123.171581 C406.101115,123.171581 403.84556,122.031103 401.389049,119.814514 L401.058969,119.516673 L401.058969,117.52911 L401.104723,117.3831 C406.080156,101.505378 409.566627,89.631971 411.562564,81.7700815 C413.445064,74.3550131 414.762077,67.1661216 415.514049,60.2033976 C410.233524,60.5720634 406.37019,60.5418125 403.8907,60.1027146 C401.188685,59.624209 398.163777,58.3171866 394.803127,56.1922012 L393.973603,55.6676815 L400.088017,45.5845375 L459.39835,45.5845375 L459.564748,45.6454154 C462.937628,46.879404 464.57908,48.7409664 464.077417,51.1823802 C463.641058,53.3059834 461.393745,56.1401335 457.319742,59.8567991 L457.033388,60.1180359 L435.42915,60.1180359 Z" id="Path-95" stroke-width="2"></path>
                <path d="M516.576837,93.0662377 C518.615774,88.3333587 519.979833,84.9976349 520.664382,83.0727428 C521.966277,79.4119232 522.211488,75.2020181 521.758669,71.9007723 C521.299987,68.5567845 517.861179,64.7148577 511.365192,60.4934307 L510.660048,60.0351912 L516.937928,45.3473419 L517.895045,45.8454529 C527.535066,50.8623975 533.478804,55.6985213 535.722703,60.4508928 C535.914921,60.8579921 536.154642,61.2951183 536.521764,61.9203382 C536.631478,62.107183 537.096729,62.8907864 537.013639,62.7505484 C537.223039,63.1039692 537.381338,63.3749791 537.537211,63.6488076 C539.12456,66.437367 539.95927,68.7936204 540.083712,71.722428 C540.19356,74.3077464 539.38228,78.9610712 537.655775,85.7659487 L537.623555,85.8929386 L537.55971,86.0073427 C529.021865,101.306297 521.37337,111.275985 514.548397,115.93761 C507.683447,120.626541 495.592987,123.130246 478.232219,123.519835 L476.154183,123.566468 L489.295448,106.334691 L489.8765,106.417951 C495.563217,107.23282 500.003223,106.823718 503.19933,105.231079 C506.434615,103.618918 510.916189,99.5571966 516.576837,93.0662377 Z" id="Path-96" stroke-width="2"></path>
                <path d="M482.87811,71.4306014 C476.682897,81.5960486 473.963262,89.1063684 474.656497,93.844991 C475.067201,96.6523667 478.38278,102.972877 480.832539,105.27261 C482.125666,106.486543 484.36398,107.175997 487.569942,107.27846 L489.374767,107.336143 L477.959402,124.339185 L477.282488,124.175645 C471.562166,122.793632 467.579532,120.775216 465.347628,118.062688 C462.394746,114.473923 458.230454,104.575728 457.774764,100.477363 C457.205199,95.3548328 458.861714,88.3000391 462.936697,77.928838 C464.154977,74.8282039 466.482389,69.7163935 469.924159,62.579142 L469.993059,62.4362642 L470.102791,62.3217215 C477.322581,54.7854221 483.540137,50.0904969 488.805263,48.2427622 C494.010196,46.4161514 503.178743,45.2277565 516.366177,44.6522161 L518.089914,44.5769869 L510.436875,59.3985839 L509.770009,59.3414255 C502.967318,58.7583538 497.982229,59.1937327 494.848272,60.6035476 C491.709179,62.0156726 487.697679,65.6273643 482.87811,71.4306014 Z" id="Path-97" stroke-width="2"></path>
                <path d="M259.890184,59.7339369 L257.160011,75.7117527 L287.417112,77.053238 L288.808626,82.8560074 L282.199076,89.2955058 L252.326721,89.2955058 L247.026623,108.049201 L283.655176,109.568217 L283.793368,109.802459 C285.858447,113.302859 286.552687,115.893671 285.794359,117.622995 C285.05608,119.3066 282.436136,121.220524 277.901857,123.463439 L277.7896,123.518968 L227.84555,121.945329 L227.84555,115.328309 L227.864944,115.190407 L237.217165,82.6052272 L242.329591,54.9807388 L242.359095,54.8808881 C243.166691,52.925176 244.008852,51.4131992 244.892538,50.3424189 C245.772483,49.2761712 247.198303,48.0365924 249.174618,46.6134209 L249.305506,46.5191662 L298.635459,46.5191662 L298.774171,46.6339418 C301.835655,49.1671437 303.249239,51.3377984 302.925395,53.2116984 C302.609515,55.039519 300.502637,57.153032 296.615036,59.6544173 L296.491448,59.7339369 L259.890184,59.7339369 Z" id="Path-93"></path>
            </g>
        </g>
    </g>
</svg>